HIERARCHY
ROOT root
{
	OFFSET 0.000000 0.000000 0.000000
	CHANNELS 6 Xposition Yposition Zposition Zrotation Yrotation Xrotation
	JOINT lhip
	{
		OFFSET 0.058581 -0.082280 -0.017664
		CHANNELS 3 Zrotation Yrotation Xrotation
		JOINT lknee
		{
			OFFSET 0.043451 -0.386469 0.008037
			CHANNELS 3 Zrotation Yrotation Xrotation
			JOINT lankle
			{
				OFFSET -0.014790 -0.426874 -0.037428
				CHANNELS 3 Zrotation Yrotation Xrotation
				JOINT ltoe
				{
					OFFSET 0.041054 -0.060286 0.122042
					CHANNELS 3 Zrotation Yrotation Xrotation
					End Site
					{
						OFFSET 0.000000 0.000000 0.000000
					}
				}
			}
		}
	}
	JOINT rhip
	{
		OFFSET -0.060310 -0.090513 -0.013543
		CHANNELS 3 Zrotation Yrotation Xrotation
		JOINT rknee
		{
			OFFSET -0.043257 -0.383688 -0.004843
			CHANNELS 3 Zrotation Yrotation Xrotation
			JOINT rankle
			{
				OFFSET 0.019056 -0.420046 -0.034562
				CHANNELS 3 Zrotation Yrotation Xrotation
				JOINT rtoe
				{
					OFFSET -0.034840 -0.062106 0.130323
					CHANNELS 3 Zrotation Yrotation Xrotation
					End Site
					{
						OFFSET 0.000000 0.000000 0.000000
					}
				}
			}
		}
	}
	JOINT lowerback
	{
		OFFSET 0.004439 0.124404 -0.038385
		CHANNELS 3 Zrotation Yrotation Xrotation
		JOINT upperback
		{
			OFFSET 0.004488 0.137956 0.026820
			CHANNELS 3 Zrotation Yrotation Xrotation
			JOINT chest
			{
				OFFSET -0.002265 0.056032 0.002855
				CHANNELS 3 Zrotation Yrotation Xrotation
				JOINT lowerneck
				{
					OFFSET -0.013390 0.211636 -0.033468
					CHANNELS 3 Zrotation Yrotation Xrotation
					JOINT upperneck
					{
						OFFSET 0.010113 0.088937 0.050410
						CHANNELS 3 Zrotation Yrotation Xrotation
						End Site
						{
							OFFSET 0.000000 0.000000 0.000000
						}
					}
				}
				JOINT lclavicle
				{
					OFFSET 0.071702 0.114000 -0.018898
					CHANNELS 3 Zrotation Yrotation Xrotation
					JOINT lshoulder
					{
						OFFSET 0.122921 0.045205 -0.019046
						CHANNELS 3 Zrotation Yrotation Xrotation
						JOINT lelbow
						{
							OFFSET 0.255332 -0.015649 -0.022946
							CHANNELS 3 Zrotation Yrotation Xrotation
							JOINT lwrist
							{
								OFFSET 0.265709 0.012698 -0.007375
								CHANNELS 3 Zrotation Yrotation Xrotation
								End Site
								{
									OFFSET 0.000000 0.000000 0.000000
								}
							}
						}
					}
				}
				JOINT rclavicle
				{
					OFFSET -0.082954 0.112472 -0.023707
					CHANNELS 3 Zrotation Yrotation Xrotation
					JOINT rshoulder
					{
						OFFSET -0.113228 0.046853 -0.008472
						CHANNELS 3 Zrotation Yrotation Xrotation
						JOINT relbow
						{
							OFFSET -0.260127 -0.014369 -0.031269
							CHANNELS 3 Zrotation Yrotation Xrotation
							JOINT rwrist
							{
								OFFSET -0.269108 0.006794 -0.006027
								CHANNELS 3 Zrotation Yrotation Xrotation
								End Site
								{
									OFFSET 0.000000 0.000000 0.000000
								}
							}
						}
					}
				}
			}
		}
	}
}
MOTION
Frames: 9
Frame Time: 0.033333
0.377372 0.153651 0.995574 86.537399 0.014219 89.269340 4.783048 5.323769 6.821467 -3.764857 0.829077 -4.453631 1.025240 9.731245 -4.122495 0.000000 -0.000000 0.000000 -6.235599 -3.659178 3.533882 2.020560 -0.945339 0.848239 5.132874 -3.919629 -6.890066 0.000000 -0.000000 0.000000 -5.012153 3.669287 -9.003905 2.336591 -1.945180 13.861685 -0.221527 0.906908 -4.283068 4.323291 5.144184 8.881698 4.041332 -0.979560 -1.431643 -26.611662 -1.115207 -0.812606 -56.206318 -5.236648 17.679245 3.429518 -20.886942 7.916550 -7.337027 -12.266259 12.025410 29.200739 3.715992 5.472346 56.641303 2.727314 13.609090 -10.957949 24.564389 -5.935350 1.830999 11.337764 1.720410 
0.377298 0.153616 0.995544 86.542802 0.015474 89.265986 4.789450 5.323646 6.822922 -3.763187 0.825390 -4.456078 1.020167 9.729310 -4.118928 0.000000 -0.000000 0.000000 -6.229168 -3.650481 3.542801 2.018497 -0.941600 0.832086 5.129945 -3.933819 -6.890951 0.000000 -0.000000 0.000000 -5.006726 3.659865 -8.987209 2.328321 -1.936014 13.826942 -0.212787 0.911594 -4.252803 4.325200 5.139645 8.852289 4.038018 -0.986206 -1.392415 -26.595966 -1.122138 -0.808443 -56.225535 -5.237799 17.664856 3.427439 -20.882228 7.938324 -7.343740 -12.272596 12.027371 29.182583 3.714854 5.481664 56.672111 2.735237 13.616898 -10.969747 24.560758 -5.921974 1.824405 11.336898 1.725985 
0.377198 0.153535 0.995466 86.552866 0.032578 89.251634 4.811325 5.325302 6.845768 -3.755161 0.804857 -4.488360 0.993190 9.737794 -4.108058 0.000000 -0.000000 0.000000 -6.193676 -3.616682 3.573763 2.001032 -0.934197 0.793862 5.122436 -3.987725 -6.899240 0.000000 -0.000000 0.000000 -4.983448 3.624881 -8.941828 2.292754 -1.905345 13.705741 -0.187730 0.933407 -4.148644 4.319151 5.117072 8.779478 4.023365 -1.014539 -1.329827 -26.518343 -1.149299 -0.808534 -56.316061 -5.238842 17.623922 3.439587 -20.877392 8.010024 -7.371986 -12.287373 12.039422 29.089696 3.729622 5.508995 56.802506 2.754022 13.650354 -10.984747 24.553102 -5.879197 1.795836 11.347978 1.705101 
0.377075 0.153510 0.995405 86.562106 0.031147 89.266207 4.814121 5.306425 6.883153 -3.767759 0.808417 -4.588571 0.968493 9.727816 -4.084191 0.000000 -0.000000 0.000000 -6.185312 -3.595838 3.565726 1.987154 -0.948814 0.782191 5.119588 -4.006490 -6.919001 0.000000 -0.000000 0.000000 -4.959690 3.591776 -8.909277 2.250845 -1.855022 13.570201 -0.158301 0.926341 -4.017983 4.356071 5.140725 8.648056 3.987803 -1.025430 -1.182667 -26.428832 -1.126301 -0.840089 -56.449905 -5.256835 17.580358 3.482418 -20.895047 8.158508 -7.412319 -12.294574 12.053359 28.986013 3.682439 5.524085 56.944813 2.821923 13.719447 -11.025590 24.545179 -5.821435 1.775375 11.375786 1.664608 
0.377027 0.153546 0.995403 86.573831 0.031871 89.267000 4.809294 5.313803 6.909298 -3.767522 0.788955 -4.645859 1.014077 9.704824 -4.058212 0.000000 -0.000000 0.000000 -6.193067 -3.597178 3.573351 2.003333 -0.949412 0.763506 5.117280 -4.016699 -6.908912 0.000000 -0.000000 0.000000 -4.943676 3.578790 -8.898430 2.239450 -1.844359 13.538796 -0.159233 0.935656 -3.999984 4.363113 5.111233 8.624743 3.986940 -1.040118 -1.134729 -26.435378 -1.130291 -0.827701 -56.463378 -5.265040 17.579871 3.498278 -20.895883 8.176013 -7.422735 -12.284569 12.036231 28.974681 3.674703 5.528568 56.974176 2.811056 13.727181 -11.060839 24.556239 -5.811276 1.794147 11.369264 1.638198 
0.376955 0.153578 0.995412 86.596512 0.028866 89.262007 4.799578 5.309297 6.915062 -3.758410 0.776007 -4.661133 1.007471 9.697982 -4.077291 0.000000 -0.000000 0.000000 -6.190090 -3.591171 3.575644 1.992873 -0.948365 0.767688 5.116721 -4.033760 -6.927026 0.000000 -0.000000 0.000000 -4.940762 3.556360 -8.884047 2.229013 -1.856774 13.524618 -0.159807 0.950687 -3.996988 4.356669 5.101827 8.611944 4.001696 -1.042353 -1.115086 -26.425960 -1.133236 -0.823059 -56.491809 -5.271653 17.584191 3.510349 -20.873684 8.180625 -7.394199 -12.288816 12.028064 28.972717 3.695586 5.545737 56.996958 2.809920 13.724386 -11.088598 24.535976 -5.821567 1.776184 11.378658 1.601812 
0.376946 0.153596 0.995434 86.600788 0.028079 89.262511 4.796706 5.307540 6.912237 -3.758402 0.774543 -4.657679 1.006249 9.697513 -4.077307 0.000000 -0.000000 0.000000 -6.190805 -3.591126 3.572195 1.990625 -0.950745 0.770556 5.115988 -4.034383 -6.925706 0.000000 -0.000000 0.000000 -4.942513 3.556581 -8.879508 2.228673 -1.856679 13.523041 -0.158971 0.949111 -3.993991 4.356400 5.102299 8.608746 4.002067 -1.041358 -1.116472 -26.425282 -1.132048 -0.821709 -56.493769 -5.271435 17.584954 3.509020 -20.872730 8.182728 -7.391989 -12.293404 12.027553 28.974028 3.693531 5.542692 56.997956 2.810857 13.724740 -11.086099 24.534508 -5.820418 1.775566 11.380505 1.598985 
0.376914 0.153635 0.995484 86.653046 0.000400 89.248605 4.758271 5.280571 6.896070 -3.746873 0.745135 -4.622651 1.015348 9.695295 -4.031623 0.000000 -0.000000 0.000000 -6.212272 -3.582871 3.598187 1.975198 -0.979771 0.759859 5.131736 -4.046573 -6.885033 0.000000 -0.000000 0.000000 -4.988335 3.542694 -8.832315 2.219477 -1.870359 13.517762 -0.143637 0.923474 -3.977712 4.350658 5.108651 8.556530 3.997162 -1.029740 -1.180303 -26.399753 -1.132486 -0.819814 -56.526860 -5.288720 17.568938 3.518356 -20.861042 8.189287 -7.441881 -12.357086 12.039391 28.970228 3.689620 5.515235 57.021243 2.833256 13.715966 -11.087996 24.534014 -5.821728 1.777474 11.430798 1.616959 
0.376814 0.153656 0.995461 86.662659 -0.000684 89.255136 4.760471 5.257235 6.859213 -3.762644 0.782712 -4.574176 1.017504 9.692227 -4.062679 0.000000 -0.000000 0.000000 -6.211576 -3.570536 3.582757 1.971159 -0.997495 0.773566 5.103764 -4.053340 -6.908201 0.000000 -0.000000 0.000000 -4.983683 3.546837 -8.795625 2.209223 -1.861276 13.518908 -0.154681 0.920709 -4.015357 4.348235 5.114555 8.532076 4.015767 -1.047018 -1.120289 -26.364050 -1.142446 -0.795727 -56.566068 -5.291683 17.560492 3.533456 -20.830489 8.180548 -7.513697 -12.320372 12.018412 28.944104 3.687717 5.520637 57.073539 2.817530 13.720021 -11.101971 24.567961 -5.824955 1.836712 11.432897 1.562730 
